<?xml version="1.0" standalone="no"?>
<!DOCTYPE svg PUBLIC "-//W3C//DTD SVG 20010904//EN"
 "http://www.w3.org/TR/2001/REC-SVG-20010904/DTD/svg10.dtd">
<svg version="1.0" xmlns="http://www.w3.org/2000/svg"
 width="1600.000000pt" height="1200.000000pt" viewBox="0 0 1600.000000 1200.000000"
 preserveAspectRatio="xMidYMid meet">

<g transform="translate(0.000000,1200.000000) scale(0.100000,-0.100000)"
fill="#000000" stroke="none">
<path d="M0 6000 l0 -6000 8000 0 8000 0 0 6000 0 6000 -8000 0 -8000 0 0
-6000z m9360 775 c40 -21 56 -72 36 -118 -17 -42 -41 -57 -94 -57 -73 0 -119
65 -92 131 23 54 92 74 150 44z m-2551 -30 c201 -64 351 -225 406 -435 23 -84
23 -235 1 -320 -57 -227 -232 -402 -456 -454 -83 -20 -227 -20 -310 0 -220 51
-398 227 -455 449 -21 81 -21 244 0 326 62 240 252 414 503 459 80 15 220 3
311 -25z m1981 -240 l0 -95 120 0 120 0 0 -75 0 -75 -120 0 -120 0 0 -237 c0
-269 6 -305 52 -329 31 -16 55 -16 173 -1 19 2 20 -3 17 -73 -2 -41 -6 -77 -8
-80 -3 -3 -60 -5 -127 -5 -111 0 -126 2 -167 25 -33 18 -52 38 -70 75 -25 49
-25 54 -28 338 l-3 287 -90 0 -90 0 3 73 3 72 88 3 87 3 0 94 0 95 80 0 80 0
0 -95z m-3781 -61 l93 -18 28 -55 c16 -31 29 -50 30 -43 0 6 8 12 18 12 9 0
54 18 100 40 45 22 86 39 90 38 4 0 24 7 46 16 21 9 40 15 43 13 2 -3 15 -36
28 -74 159 -457 7 -987 -369 -1289 -144 -115 -285 -186 -466 -235 -74 -21
-109 -23 -275 -24 -186 0 -268 10 -359 45 -26 10 -38 50 -15 50 8 0 10 12 6
34 -3 19 0 39 6 45 6 6 11 38 12 70 1 35 7 67 16 77 10 13 11 18 2 21 -7 2 -9
11 -6 19 3 7 9 11 14 8 5 -3 9 -3 9 0 0 3 -28 20 -62 37 -93 46 -175 108 -249
186 l-66 70 9 69 c19 155 80 320 164 446 175 263 442 416 804 462 68 8 258 -2
349 -20z m3071 -43 c168 -64 271 -223 272 -421 2 -194 -82 -339 -240 -417 -73
-37 -80 -38 -181 -38 -93 0 -113 3 -161 26 -65 31 -113 69 -151 123 l-29 39 0
-251 0 -252 -80 0 -80 0 0 600 0 600 74 0 74 0 6 -31 c3 -17 6 -56 6 -87 l0
-55 29 39 c77 107 189 158 331 150 42 -2 99 -13 130 -25z m2078 14 c61 -19
115 -63 143 -117 l20 -39 28 38 c60 83 122 119 221 130 134 14 259 -54 311
-169 24 -52 24 -60 27 -385 l3 -333 -80 0 -81 0 0 303 c0 338 -4 360 -71 408
-29 20 -46 24 -110 24 -65 0 -81 -4 -116 -27 -26 -17 -49 -45 -64 -75 -23 -47
-24 -56 -27 -340 l-3 -293 -79 0 -80 0 0 275 c0 160 -5 295 -11 325 -19 91
-80 140 -173 140 -91 0 -145 -33 -189 -115 -21 -38 -22 -55 -25 -332 l-3 -293
-80 0 -79 0 0 435 0 435 74 0 75 0 6 -57 c9 -81 9 -80 33 -41 59 96 203 140
330 103z m2382 4 c36 -5 82 -14 103 -20 l37 -10 0 -68 c0 -37 -2 -70 -5 -73
-3 -3 -41 6 -83 19 -105 34 -241 38 -292 7 -44 -25 -62 -59 -56 -103 10 -67
27 -77 282 -150 91 -26 161 -74 191 -131 29 -55 31 -156 4 -216 -23 -50 -84
-103 -147 -128 -90 -34 -306 -32 -446 5 l-38 10 0 75 c0 69 2 75 18 69 47 -19
167 -44 238 -50 136 -12 220 28 231 110 10 75 -45 116 -207 155 -125 30 -191
62 -235 113 -63 74 -72 185 -20 272 59 102 225 146 425 114z m-3160 -444 l0
-435 -80 0 -80 0 0 428 c0 236 3 432 7 435 3 4 39 7 80 7 l73 0 0 -435z m1900
130 c6 -332 6 -333 74 -393 41 -36 83 -46 166 -40 81 6 134 43 175 123 l30 59
3 278 3 278 80 0 79 0 0 -435 0 -435 -74 0 -73 0 -7 38 c-3 20 -6 55 -6 76 l0
39 -31 -46 c-60 -91 -163 -134 -294 -124 -124 9 -200 61 -252 172 l-28 60 -3
328 -3 328 78 -3 78 -3 5 -300z"/>
<path d="M6520 6609 c-117 -20 -249 -108 -306 -204 -139 -238 -56 -558 176
-673 253 -127 561 -8 649 250 98 286 -71 582 -359 627 -74 12 -84 12 -160 0z"/>
<path d="M4585 6104 c-150 -33 -274 -103 -377 -212 -70 -74 -114 -151 -150
-257 -31 -93 -33 -277 -4 -373 19 -62 19 -62 70 -77 189 -57 404 -40 592 45
35 16 64 33 64 37 0 5 -32 40 -71 78 -39 39 -84 87 -101 107 -27 34 -28 39
-14 53 9 9 22 24 29 33 7 9 52 55 99 101 l86 84 117 -114 116 -114 20 25 c33
42 107 202 125 270 9 36 17 101 18 145 l1 79 -75 33 c-124 53 -182 65 -335 69
-101 2 -160 -1 -210 -12z"/>
<path d="M7789 6265 c-60 -19 -133 -84 -167 -149 -23 -44 -27 -63 -27 -141 0
-78 4 -97 27 -141 71 -134 222 -194 374 -149 196 58 265 337 124 499 -72 81
-218 117 -331 81z"/>
</g>
</svg>
